<?xml version="1.0" encoding="utf-8"?>
<!-- Generator: Adobe Illustrator 21.0.0, SVG Export Plug-In . SVG Version: 6.00 Build 0)  -->
<svg version="1.1" id="Calque_1" xmlns="http://www.w3.org/2000/svg" xmlns:xlink="http://www.w3.org/1999/xlink" x="0px" y="0px"
	 viewBox="0 0 24 24" style="enable-background:new 0 0 24 24;" xml:space="preserve">
<style type="text/css">
	.st0{fill:#590E5B;}
</style>
<path class="st0" d="M19,0H5C2.2,0,0,2.2,0,5v14c0,2.8,2.2,5,5,5h14c2.8,0,5-2.2,5-5V5C24,2.2,21.8,0,19,0z M7.8,19.4H4.9V8.7h2.9
	V19.4z M6.3,7.5c-0.9,0-1.7-0.8-1.7-1.7s0.8-1.7,1.7-1.7S8,4.9,8,5.8S7.3,7.5,6.3,7.5z M19.4,19.4h-2.9V14c0-3.3-3.9-3-3.9,0v5.4
	H9.7V8.7h2.9v1.7c1.3-2.5,6.8-2.7,6.8,2.4V19.4z"/>
</svg>
