<?xml version="1.0" encoding="utf-8"?>
<!-- Generator: Adobe Illustrator 21.0.0, SVG Export Plug-In . SVG Version: 6.00 Build 0)  -->
<svg version="1.1" id="Calque_1" xmlns="http://www.w3.org/2000/svg" xmlns:xlink="http://www.w3.org/1999/xlink" x="0px" y="0px"
	 viewBox="0 0 24 24" style="enable-background:new 0 0 24 24;" xml:space="preserve">
<style type="text/css">
	.st0{fill:#590E5B;}
</style>
<path class="st0" d="M19,0H5C2.2,0,0,2.2,0,5v14c0,2.8,2.2,5,5,5h14c2.8,0,5-2.2,5-5V5C24,2.2,21.8,0,19,0z M4.7,14.3
	C4.3,13.9,4,13.4,4,12.8c0-0.6,0.3-1.1,0.7-1.5V14.3z M6,14.8c-0.2,0-0.4,0-0.7-0.1v-3.8c0.3-0.1,0.5-0.1,0.7-0.1V14.8z M7.3,14.8
	H6.7V11l0.2,0.1c0.1-0.4,0.3-0.7,0.5-1L7.3,14.8L7.3,14.8z M8.7,14.8H8V9.4C8.2,9.2,8.4,9.1,8.7,9V14.8z M10,14.8H9.3V8.9
	c0.3,0,0.3,0,0.7,0C10,8.9,10,14.8,10,14.8z M11.3,14.8h-0.7V9.1l0.3,0.1C11,9,11.2,8.8,11.3,8.6V14.8z M18.1,14.8H12V8
	c0.5-0.4,1.2-0.6,1.8-0.6c1.8,0,3.3,1.5,3.4,3.4c1.3-0.6,2.7,0.4,2.7,1.9C20,13.9,19.1,14.8,18.1,14.8z"/>
</svg>
