<?xml version="1.0" encoding="utf-8"?>
<!-- Generator: Adobe Illustrator 21.0.0, SVG Export Plug-In . SVG Version: 6.00 Build 0)  -->
<svg version="1.1" id="Calque_2" xmlns="http://www.w3.org/2000/svg" xmlns:xlink="http://www.w3.org/1999/xlink" x="0px" y="0px"
	 viewBox="0 0 24 24" style="enable-background:new 0 0 24 24;" xml:space="preserve">
<style type="text/css">
	.st0{fill:#590E5B;}
</style>
<g>
	<rect x="15.5" y="11.3" transform="matrix(0.7069 -0.7073 0.7073 0.7069 -4.5856 14.9209)" class="st0" width="0.5" height="3.3"/>
	<rect x="16.2" y="10.6" transform="matrix(0.7069 -0.7073 0.7073 0.7069 -3.8841 15.212)" class="st0" width="0.4" height="3.3"/>
	<rect x="12.2" y="14.5" transform="matrix(0.707 -0.7072 0.7072 0.707 -7.8014 13.587)" class="st0" width="0.5" height="3.3"/>
	<ellipse transform="matrix(0.7072 -0.707 0.707 0.7072 -3.2077 7.9662)" class="st0" cx="8" cy="7.9" rx="1.3" ry="1.3"/>
	<rect x="13" y="13.7" transform="matrix(0.7072 -0.707 0.707 0.7072 -6.9979 13.9138)" class="st0" width="0.7" height="3.3"/>
	<path class="st0" d="M19,0H5C2.2,0,0,2.2,0,5v14c0,2.8,2.2,5,5,5h14c2.8,0,5-2.2,5-5V5C24,2.2,21.8,0,19,0z M13.6,20.5l-8.9-8.9
		V4.5h7.1l8.9,8.9L13.6,20.5z"/>
	<rect x="14.6" y="12.1" transform="matrix(0.7073 -0.7069 0.7069 0.7073 -5.3722 14.5842)" class="st0" width="0.7" height="3.3"/>
	<rect x="13.9" y="12.9" transform="matrix(0.7072 -0.707 0.707 0.7072 -6.1878 14.2493)" class="st0" width="0.5" height="3.3"/>
</g>
</svg>
