<?xml version="1.0" encoding="utf-8"?>
<!-- Generator: Adobe Illustrator 16.0.0, SVG Export Plug-In . SVG Version: 6.00 Build 0)  -->
<!DOCTYPE svg PUBLIC "-//W3C//DTD SVG 1.1//EN" "http://www.w3.org/Graphics/SVG/1.1/DTD/svg11.dtd">
<svg version="1.1"
	 id="Calque_1" xmlns:svg="http://www.w3.org/2000/svg" xmlns:dc="http://purl.org/dc/elements/1.1/" xmlns:sodipodi="http://sodipodi.sourceforge.net/DTD/sodipodi-0.dtd" xmlns:cc="http://creativecommons.org/ns#" xmlns:rdf="http://www.w3.org/1999/02/22-rdf-syntax-ns#" xmlns:inkscape="http://www.inkscape.org/namespaces/inkscape"
	 xmlns="http://www.w3.org/2000/svg" xmlns:xlink="http://www.w3.org/1999/xlink" x="0px" y="0px" width="30px" height="30px"
	 viewBox="0 25 30 30" enable-background="new 0 25 30 30" xml:space="preserve">
<g transform="translate(0,-1020.3622)">
	<g transform="translate(0,1.7382813e-5)">
		<g transform="translate(1.9865548,-161.55442)">
			<path d="M21.026,1208.039c-1.417,0.027-2.912,0.455-4.277,1.155c-1.365,0.7-2.602,1.673-3.481,2.837
				c-0.879,1.164-1.404,2.541-1.243,3.983c0.002,0.017,0.006,0.034,0.009,0.051c0.266,1.321,0.889,2.51,1.74,3.5l-7.724,7.724H6.046
				c-0.499-0.499-1.285-0.379-1.749,0.082l-3.997,4c-0.463,0.463-0.582,1.25-0.083,1.748l0.833,0.833
				c0.499,0.499,1.286,0.38,1.749-0.083l3.999-3.998c0.463-0.463,0.582-1.25,0.083-1.748h0.002l7.724-7.725
				c0.989,0.851,2.178,1.475,3.498,1.74c0.017,0,0.033,0.012,0.05,0.012c1.442,0.161,2.821-0.361,3.985-1.24
				c1.164-0.879,2.136-2.119,2.836-3.484c0.7-1.365,1.128-2.857,1.155-4.275c0.027-1.417-0.361-2.786-1.342-3.766
				c-0.979-0.98-2.347-1.366-3.764-1.339V1208.039z M20.538,1209.289l0.833,0.833l-0.833,0.833l-0.833-0.833L20.538,1209.289z
				 M23.391,1209.767c0.206,0.126,0.396,0.273,0.566,0.444c0.11,0.111,0.195,0.242,0.287,0.368l-0.375,0.375l-0.833-0.833
				L23.391,1209.767z M17.888,1209.972l0.152,0.149l-0.833,0.833l-0.423-0.421c0.167-0.098,0.331-0.201,0.504-0.29
				C17.484,1210.142,17.686,1210.059,17.888,1209.972z M18.872,1210.954l0.833,0.833l-0.833,0.833l-0.833-0.833L18.872,1210.954z
				 M22.204,1210.954l0.833,0.833l-0.833,0.833l-0.833-0.833L22.204,1210.954z M15.785,1211.2l0.589,0.587l-0.833,0.833
				l-0.653-0.651C15.161,1211.697,15.466,1211.443,15.785,1211.2z M24.781,1211.711c0.018,0.066,0.031,0.135,0.046,0.203
				l-0.124-0.124L24.781,1211.711z M17.207,1212.62l0.833,0.833l-0.833,0.833l-0.833-0.833L17.207,1212.62z M20.538,1212.62
				l0.833,0.833l-0.833,0.833l-0.833-0.833L20.538,1212.62z M23.87,1212.62l0.833,0.833l-0.833,0.833l-0.833-0.833L23.87,1212.62z
				 M14.121,1212.869l0.584,0.584l-0.833,0.833l-0.347-0.347C13.678,1213.574,13.872,1213.216,14.121,1212.869z M15.539,1214.283
				l0.833,0.833l-0.833,0.833l-0.833-0.833L15.539,1214.283z M18.872,1214.283l0.833,0.833l-0.833,0.833l-0.833-0.833
				L18.872,1214.283z M22.204,1214.283l0.833,0.833l-0.833,0.833l-0.833-0.833L22.204,1214.283z M13.873,1215.949l0.833,0.833
				l-0.852,0.851c-0.202-0.374-0.354-0.774-0.48-1.185L13.873,1215.949z M17.204,1215.949l0.833,0.833l-0.833,0.833l-0.833-0.833
				L17.204,1215.949z M20.538,1215.949l0.833,0.833l-0.833,0.833l-0.833-0.833L20.538,1215.949z M23.87,1215.949l0.327,0.327
				c-0.088,0.201-0.17,0.404-0.27,0.6c-0.089,0.173-0.193,0.336-0.292,0.504l-0.599-0.598L23.87,1215.949z M15.539,1217.615
				l0.833,0.833l-1.021,1.021c-0.297-0.259-0.574-0.538-0.821-0.844L15.539,1217.615z M18.87,1217.615l0.835,0.833l-0.833,0.833
				l-0.835-0.833L18.87,1217.615z M22.204,1217.615l0.767,0.766c-0.243,0.318-0.498,0.621-0.771,0.895l-0.828-0.829L22.204,1217.615
				z M17.204,1219.281l0.833,0.833l-0.598,0.598c-0.395-0.142-0.768-0.329-1.125-0.541L17.204,1219.281z M20.538,1219.281
				l0.759,0.761c-0.348,0.25-0.704,0.443-1.067,0.596l-0.525-0.525L20.538,1219.281z M18.87,1220.946l0.014,0.014
				c-0.009,0-0.019,0-0.028,0L18.87,1220.946z M20.616,1223.292L20.616,1223.292c-0.152,0.012-0.295,0.074-0.4,0.187l-6.012,6.281
				h-0.016c-0.015,0-0.029-0.013-0.044-0.013c-1.59-0.248-3.11,0.777-3.465,2.334s0.577,3.135,2.121,3.589
				c1.473,0.433,3.029-0.298,3.656-1.663c0.041-0.029,0.078-0.062,0.11-0.1c0.307-0.081,1.161-0.315,1.829-0.499
				c0.099,0,0.195-0.027,0.281-0.075c0.636-0.176,0.898-0.25,1.647-0.451c1.857-0.5,3.843-1.012,4.623-1.144
				c0.687-0.104,0.659-1.103-0.032-1.169c-0.767-0.342-1.182-0.683-1.357-1.061c-0.178-0.381-0.186-0.922,0.143-1.824
				c0.136-0.357-0.098-0.746-0.477-0.794c-0.033-0.015-0.066-0.024-0.102-0.032c-0.896-0.222-1.414-0.513-1.677-0.891
				c-0.264-0.377-0.366-0.951-0.177-1.963c0.064-0.314-0.137-0.623-0.451-0.691c-0.064-0.02-0.132-0.029-0.2-0.026V1223.292z
				 M20.023,1225.387c0.057,0.479,0.203,0.9,0.456,1.264c0.28,0.398,0.667,0.688,1.123,0.916l-2.542,1.49l-0.971-1.646
				L20.023,1225.387z M5.215,1228.116l0.833,0.834c-0.038-0.039,0.007-0.013-0.083,0.082l-3.999,3.998
				c-0.09,0.092-0.12,0.047-0.083,0.083l-0.833-0.833c0.038,0.038-0.008,0.012,0.083-0.082l3.999-3.999
				C5.223,1228.108,5.253,1228.153,5.215,1228.116z M17.241,1228.294l0.803,1.359l-0.667,0.392l-0.704-1.157L17.241,1228.294z
				 M22.299,1228.524c-0.062,0.545-0.016,1.047,0.19,1.49c0.168,0.36,0.422,0.655,0.732,0.914c-0.801,0.193-1.686,0.418-2.658,0.678
				l-0.907-1.533L22.299,1228.524z M15.831,1229.768l0.532,0.87l-0.916,0.536l-0.361-0.629L15.831,1229.768z M18.642,1230.669
				l0.741,1.256c-0.328,0.09-0.436,0.119-0.739,0.202l-0.653-1.077L18.642,1230.669z M13.601,1230.893c0.112,0,0.225,0,0.338,0.021
				l1.468,2.564c-0.372,0.881-1.342,1.348-2.273,1.072c-0.958-0.281-1.522-1.234-1.302-2.199
				C12.025,1231.508,12.76,1230.923,13.601,1230.893L13.601,1230.893z M16.974,1231.646l0.49,0.803
				c-0.345,0.096-0.93,0.254-1.116,0.304l-0.317-0.555L16.974,1231.646z"/>
		</g>
	</g>
</g>
</svg>
