<?xml version="1.0" encoding="utf-8"?>
<!-- Generator: Adobe Illustrator 16.0.0, SVG Export Plug-In . SVG Version: 6.00 Build 0)  -->
<!DOCTYPE svg PUBLIC "-//W3C//DTD SVG 1.1//EN" "http://www.w3.org/Graphics/SVG/1.1/DTD/svg11.dtd">
<svg version="1.1" id="Calque_1" xmlns="http://www.w3.org/2000/svg" xmlns:xlink="http://www.w3.org/1999/xlink" x="0px" y="0px"
	 width="30px" height="30px" viewBox="0 25 30 30" enable-background="new 0 25 30 30" xml:space="preserve">
<path d="M19.189,26.99c-0.007-0.199-0.176-0.391-0.375-0.384l-3.619,0.128c-0.2,0.006-0.354,0.232-0.347,0.433l0.087,2.452
	l4.343-0.154L19.189,26.99z"/>
<rect x="15.318" y="30.984" transform="matrix(-0.9994 0.0354 -0.0354 -0.9994 36.4001 80.1529)" width="4.345" height="18.829"/>
<path d="M15.744,52.496c0.007,0.199,0.172,0.298,0.373,0.292l3.62-0.129c0.2-0.008,0.356-0.14,0.35-0.339l-0.041-1.145l-4.342,0.153
	L15.744,52.496z"/>
<path d="M2.258,52.369c0,0.2,0.162,0.363,0.362,0.363h3.621c0.2,0,0.362-0.163,0.362-0.363V36.8H2.258V52.369z"/>
<path d="M6.603,29.92c0-0.2-0.162-0.362-0.362-0.362H2.62c-0.201,0-0.362,0.163-0.362,0.362v2.535h4.345V29.92z"/>
<path d="M13.845,32.853c0-0.201-0.162-0.362-0.363-0.362H8.414c-0.2,0-0.362,0.162-0.362,0.362v2.499h5.793V32.853L13.845,32.853z"
	/>
<path d="M8.051,38.249v14.121c0,0.2,0.162,0.363,0.362,0.363h5.068c0.201,0,0.363-0.163,0.363-0.363V38.249H8.051z"/>
<path d="M23.432,52.418c0.028,0.2,0.21,0.337,0.41,0.309l3.584-0.508c0.198-0.029,0.339-0.184,0.312-0.381L25.344,34.96l-4.303,0.61
	L23.432,52.418z"/>
<path d="M24.784,31.016c-0.028-0.198-0.211-0.335-0.409-0.307l-3.586,0.508c-0.197,0.028-0.339,0.182-0.311,0.38l0.359,2.538
	l4.303-0.61L24.784,31.016z"/>
</svg>
