<?xml version="1.0" encoding="utf-8"?>
<!-- Generator: Adobe Illustrator 16.0.0, SVG Export Plug-In . SVG Version: 6.00 Build 0)  -->
<!DOCTYPE svg PUBLIC "-//W3C//DTD SVG 1.1//EN" "http://www.w3.org/Graphics/SVG/1.1/DTD/svg11.dtd">
<svg version="1.1" id="Calque_1" xmlns="http://www.w3.org/2000/svg" xmlns:xlink="http://www.w3.org/1999/xlink" x="0px" y="0px"
	 width="30px" height="30px" viewBox="0 25 30 30" enable-background="new 0 25 30 30" xml:space="preserve">
<path d="M28.482,41.549c-0.258-0.59-0.626-1.144-1.07-1.622c-0.479-0.479-0.995-0.812-1.621-1.069
	c-0.148-0.073-0.332-0.147-0.517-0.185l0.109-0.332c-0.515-0.184-1.068-0.258-1.621-0.258c-0.848,0-1.659,0.185-2.36,0.554
	c-0.221-0.554-0.442-1.181-0.663-1.733c0.073,0,0.147,0,0.184,0h3.54c0.369,0,0.664-0.258,0.664-0.663v-2.544
	c0-0.369-0.295-0.627-0.701-0.664c-1.659-0.11-4.498-0.258-4.903-0.368c-0.258-0.074-0.405-0.147-0.479-0.222
	c-0.037-0.073-0.037-0.11-0.073-0.147l0,0l0,0c-0.627-0.958-2.691-0.995-3.097-0.995c-0.038,0-0.111,0-0.147,0
	c-0.147,0-0.295,0.074-0.406,0.185s-0.147,0.258-0.147,0.405c0,0.332,0.295,0.553,0.59,0.553c0.037,0,0.111,0,0.185,0
	c0.736,0,1.622,0.147,1.99,0.517c0.037,0.037,0.037,0.073,0.075,0.073c0.036,0.037,0.036,0.074,0.036,0.111
	c0.184,0.442,0.369,0.958,0.553,1.475c-0.185,1.032-0.811,2.175-1.732,3.06c-0.774,0.737-2.065,1.622-3.945,1.732l-1.216-3.76
	c0.59-0.111,1.032-0.222,1.032-0.259l0,0c0.479-0.11,0.774-0.221,0.848-0.59c0.074-0.368-0.332-0.516-0.848-0.479H9.385
	c-0.553,0-0.921,0.405-0.848,0.885c0.111,0.626,0.922,0.663,1.401,0.663c0.185,0,0.406,0,0.627-0.037l0.442,1.586l-0.332,0.405
	H9.938l-0.701-0.848H4.813l-0.184,0.185l-0.553,0.59c-0.111,0.11-0.148,0.258-0.111,0.368c0,0.037,0.074,0.185,0.258,0.221
	c0.258,0.037,0.479,0.111,0.664,0.185c-2.175,0.701-3.723,2.766-3.723,5.161h0.405c0,1.327,0.517,2.582,1.475,3.539
	c0.958,0.923,2.211,1.438,3.575,1.438c1.364,0,2.618-0.516,3.576-1.438c0.812-0.811,1.328-1.806,1.438-2.949h1.585
	c0,0,0.405-0.036,0.553-0.073l0,0c0.111,0,0.221-0.037,0.295-0.037l0,0l0,0h0.037h0.037h0.037h0.037c0,0,0,0,0.037,0l0,0
	c0.111-0.036,0.221-0.072,0.368-0.11h0.037c0.553-0.222,1.032-0.554,1.475-1.069c0.7-0.811,2.875-3.429,3.834-4.571
	c0.111,0.258,0.258,0.663,0.406,1.032c-1.217,0.995-2.028,2.507-2.028,4.203h0.369c0,0.036,0,0.036,0,0.073
	c0,1.364,0.516,2.617,1.475,3.539s2.212,1.438,3.576,1.438s2.618-0.516,3.576-1.438c0.958-0.922,1.474-2.175,1.474-3.539
	C28.887,42.802,28.777,42.176,28.482,41.549z M9.68,46.451c-0.811,0.774-1.88,1.218-3.023,1.218c-1.143,0-2.212-0.443-3.023-1.218
	c-0.811-0.774-1.253-1.843-1.253-2.949c0-1.142,0.443-2.211,1.253-3.022c0.627-0.627,1.475-1.069,2.36-1.18
	c0.073,0.185,0.073,0.332,0.073,0.479v3.17c-0.184,0.147-0.294,0.406-0.294,0.664c0,0.48,0.405,0.885,0.884,0.885
	c0.295,0,0.59-0.147,0.738-0.404h3.465C10.749,45.014,10.344,45.825,9.68,46.451z M7.431,43.171
	c-0.037-0.074-0.111-0.146-0.184-0.222v-2.802c0.073-0.11,0.258-0.185,0.479-0.185h1.032c0,0,0.294,0.074,0.811,0.627l0.111-0.11
	l0.037,0.038c0.737,0.736,1.143,1.658,1.217,2.653H7.431L7.431,43.171z M12.777,43.171c0,0-0.406,0-1.069,0
	c-0.037-0.553-0.147-1.106-0.369-1.622c-0.258-0.59-0.626-1.144-1.069-1.622c-0.037-0.037-0.037-0.037-0.074-0.074l0.295-0.332
	l1.106-1.326l1.733,4.977C13.145,43.171,12.961,43.171,12.777,43.171z M15.505,42.176c-0.479,0.553-0.774,0.589-1.328,0.7
	l-0.885-2.544c1.475-0.11,2.434-0.59,3.318-1.18l0.7,0.885C16.537,40.922,15.836,41.77,15.505,42.176z M17.753,39.521L17.09,38.6
	c0.184-0.147,0.332-0.295,0.479-0.442c0.774-0.737,1.364-1.659,1.696-2.581c0.184,0.479,0.369,0.959,0.552,1.438
	C19.486,37.42,18.639,38.452,17.753,39.521z M19.449,33.364c0.774,0.147,3.945,0.295,4.977,0.369c0,0,0,0,0.037,0v0.848v0.737v0.812
	h-3.54c-0.22,0-0.368-0.037-0.479-0.111c-0.184-0.442-0.295-0.773-0.332-0.885C20.077,35.097,19.745,34.176,19.449,33.364z
	 M26.859,46.451c-0.811,0.774-1.88,1.218-3.023,1.218c-1.143,0-2.212-0.443-3.023-1.218c-0.811-0.774-1.253-1.843-1.253-2.949
	c0-1.142,0.442-2.211,1.253-3.022c0.038-0.037,0.038-0.037,0.074-0.074c0.073,0.222,0.147,0.405,0.184,0.443
	c0.369,0.959,1.29,2.027,1.88,2.653c0,0.038,0,0.075,0,0.111c0,0.48,0.405,0.885,0.885,0.885s0.884-0.404,0.884-0.885
	c0-0.479-0.405-0.885-0.884-0.885h-0.038c-0.515-0.553-1.363-1.512-1.658-2.286c-0.038-0.037-0.111-0.331-0.296-0.7
	c0.59-0.332,1.291-0.479,1.991-0.479c1.143,0,2.212,0.442,3.023,1.255c0.811,0.81,1.253,1.879,1.253,3.022
	C28.113,44.646,27.67,45.677,26.859,46.451z"/>
<g id="Calque_2">
	<g>
		<path d="M9.647,38.361c0,0,1.121,5.216,0,6.336c-1.058,1.06-4.928,1.06-5.987,0c-1.121-1.12,0-6.336,0-6.336H9.647z"/>
		<path fill="#FFFFFF" d="M3.66,38.361h0.378c0,0,0.901,1.114,1.251,1.267c0.587,0.256,2.153,0.236,2.745-0.009
			c0.365-0.151,1.278-1.257,1.278-1.257h0.334c0,0-1.007,1.299-1.497,1.502c-0.693,0.287-2.311,0.289-3.003,0
			C4.659,39.66,3.66,38.361,3.66,38.361z"/>
	</g>
	<g>
		<path d="M26.856,38.361c0,0,1.12,5.216,0,6.336c-1.058,1.06-4.928,1.06-5.987,0c-1.12-1.12,0-6.336,0-6.336H26.856z"/>
		<path fill="#FFFFFF" d="M20.869,38.361h0.378c0,0,0.901,1.114,1.251,1.267c0.587,0.256,2.153,0.236,2.745-0.009
			c0.366-0.151,1.278-1.257,1.278-1.257h0.335c0,0-1.008,1.299-1.497,1.502c-0.693,0.288-2.311,0.289-3.003,0
			C21.868,39.66,20.869,38.361,20.869,38.361z"/>
	</g>
</g>
</svg>
