<?xml version="1.0" encoding="utf-8"?>
<!-- Generator: Adobe Illustrator 16.0.0, SVG Export Plug-In . SVG Version: 6.00 Build 0)  -->
<!DOCTYPE svg PUBLIC "-//W3C//DTD SVG 1.1//EN" "http://www.w3.org/Graphics/SVG/1.1/DTD/svg11.dtd">
<svg version="1.1" id="Calque_1" xmlns="http://www.w3.org/2000/svg" xmlns:xlink="http://www.w3.org/1999/xlink" x="0px" y="0px"
	 width="55px" height="42px" viewBox="14 19 55 42" enable-background="new 14 19 55 42" xml:space="preserve">
<g>
	<path d="M19.9,55.2h25.152v3.584c0,0.512,0.32,0.96,0.768,1.151c0.447,0.192,0.961,0.064,1.344-0.256l3.328-3.328l3.328,3.328
		c0.256,0.256,0.576,0.385,0.896,0.385c0.127,0,0.32,0,0.447-0.064c0.449-0.191,0.768-0.641,0.768-1.152v-3.584H63.1
		c0.705,0,1.217-0.576,1.217-1.216V25.952c0-0.704-0.576-1.216-1.217-1.216H19.9c-0.704,0-1.217,0.576-1.217,1.216v28.032
		C18.684,54.624,19.196,55.2,19.9,55.2z M51.324,53.664c-0.256-0.256-0.576-0.385-0.896-0.385c-0.318,0-0.639,0.129-0.895,0.385
		l-2.049,2.111v-6.848c0.961,0.32,1.92,0.513,2.943,0.513c1.025,0,2.049-0.192,2.945-0.513v6.848L51.324,53.664z M43.645,40.096
		c0-3.775,3.072-6.848,6.848-6.848s6.848,3.072,6.848,6.848c0,3.776-3.072,6.849-6.848,6.849S43.645,43.872,43.645,40.096z
		 M23.996,41.185v-2.433h14.912v2.433H23.996z M34.748,44.384v2.433H23.996v-2.433H34.748z M23.996,35.488v-2.432h8.256v2.432
		H23.996z"/>
	<path d="M41.5,19.936"/>
</g>
</svg>
