<?xml version="1.0" encoding="utf-8"?>
<!-- Generator: Adobe Illustrator 16.0.0, SVG Export Plug-In . SVG Version: 6.00 Build 0)  -->
<!DOCTYPE svg PUBLIC "-//W3C//DTD SVG 1.1//EN" "http://www.w3.org/Graphics/SVG/1.1/DTD/svg11.dtd">
<svg version="1.1" id="Calque_1" xmlns="http://www.w3.org/2000/svg" xmlns:xlink="http://www.w3.org/1999/xlink" x="0px" y="0px"
	 width="55px" height="42px" viewBox="0 19 55 42" enable-background="new 0 19 55 42" xml:space="preserve">
<path d="M32.054,54.978v1.169c0,0.919-0.669,1.713-1.588,1.839l-0.293,1.043c-0.167,0.586-0.668,0.963-1.253,0.963H26.08
	c-0.584,0-1.127-0.42-1.253-0.963l-0.293-1.085c-0.877-0.126-1.587-0.92-1.587-1.838v-1.171c0-0.626,0.501-1.128,1.128-1.128h6.852
	C31.552,53.849,32.054,54.35,32.054,54.978z M27.5,26.15c0.626,0,1.128-0.502,1.128-1.129v-3.885c0-0.627-0.502-1.128-1.128-1.128
	s-1.128,0.501-1.128,1.128v3.885C26.372,25.648,26.874,26.15,27.5,26.15z M14.423,39.227c0-0.627-0.501-1.128-1.128-1.128H9.41
	c-0.627,0-1.128,0.501-1.128,1.128s0.501,1.128,1.128,1.128h3.885C13.922,40.313,14.423,39.812,14.423,39.227z M45.591,38.099
	h-3.887c-0.626,0-1.128,0.501-1.128,1.128s0.502,1.128,1.128,1.128h3.887c0.626,0,1.127-0.501,1.127-1.128
	C46.676,38.6,46.175,38.099,45.591,38.099z M16.679,48.46l-2.757,2.756c-0.418,0.419-0.418,1.128,0,1.588
	c0.209,0.209,0.501,0.334,0.793,0.334s0.585-0.125,0.793-0.334l2.758-2.757c0.417-0.417,0.417-1.128,0-1.587
	C17.808,48.041,17.139,48.041,16.679,48.46z M37.526,30.286c0.293,0,0.585-0.125,0.795-0.334l2.757-2.758
	c0.418-0.418,0.418-1.128,0-1.588c-0.418-0.418-1.128-0.418-1.588,0l-2.757,2.758c-0.417,0.418-0.417,1.128,0,1.588
	C36.942,30.202,37.234,30.286,37.526,30.286z M16.679,29.994c0.209,0.208,0.502,0.333,0.794,0.333c0.292,0,0.584-0.125,0.794-0.333
	c0.417-0.418,0.417-1.129,0-1.588l-2.758-2.758c-0.417-0.418-1.127-0.418-1.587,0c-0.418,0.418-0.418,1.128,0,1.588L16.679,29.994z
	 M38.321,48.46c-0.418-0.419-1.129-0.419-1.588,0c-0.417,0.417-0.417,1.127,0,1.587l2.757,2.757
	c0.208,0.209,0.501,0.334,0.794,0.334c0.292,0,0.585-0.125,0.794-0.334c0.418-0.417,0.418-1.128,0-1.588L38.321,48.46z
	 M27.417,29.367c-5.473,0.042-9.818,4.47-9.776,9.943c0.042,2.59,1.086,4.971,2.757,6.726c1.295,1.337,2.13,3.091,2.423,4.931
	c0.125,0.794,0.794,1.377,1.588,1.377h6.099c0.794,0,1.504-0.583,1.629-1.377c0.292-1.84,1.128-3.552,2.424-4.889
	c1.712-1.754,2.756-4.178,2.756-6.852C37.359,33.753,32.889,29.325,27.417,29.367z M33.809,40.229h-0.877
	c-0.125,0.71-0.418,1.42-0.835,2.088l0.626,0.627c0.209,0.209,0.209,0.586,0,0.836l-0.626,0.627c-0.208,0.209-0.585,0.209-0.836,0
	l-0.626-0.627c-0.626,0.46-1.337,0.71-2.089,0.877v0.877c0,0.335-0.251,0.586-0.584,0.586h-0.877c-0.334,0-0.585-0.251-0.585-0.586
	v-0.835c-0.751-0.126-1.461-0.418-2.088-0.877l-0.585,0.585c-0.208,0.209-0.584,0.209-0.835,0l-0.626-0.627
	c-0.208-0.21-0.208-0.584,0-0.836l0.585-0.585c-0.418-0.626-0.71-1.336-0.877-2.088h-0.835c-0.334,0-0.585-0.251-0.585-0.585v-0.878
	c0-0.334,0.251-0.585,0.585-0.585h0.877c0.125-0.752,0.417-1.462,0.877-2.089l-0.626-0.627c-0.208-0.208-0.208-0.585,0-0.835
	l0.626-0.627c0.209-0.209,0.585-0.209,0.835,0l0.627,0.627c0.626-0.418,1.337-0.71,2.089-0.836V32.96
	c0-0.334,0.251-0.585,0.584-0.585h0.877c0.334,0,0.585,0.251,0.585,0.585v0.877c0.71,0.126,1.42,0.418,2.047,0.836l0.626-0.627
	c0.209-0.209,0.585-0.209,0.836,0l0.626,0.627c0.209,0.209,0.209,0.585,0,0.835l-0.626,0.627c0.417,0.627,0.71,1.337,0.877,2.047
	h0.877c0.334,0,0.585,0.251,0.585,0.585v0.878C34.394,39.979,34.101,40.229,33.809,40.229z M25.37,37.096
	c-1.17,1.17-1.17,3.05,0,4.22c1.169,1.17,3.049,1.17,4.219,0s1.17-3.05,0-4.22C28.461,35.926,26.539,35.926,25.37,37.096z"/>
</svg>
