<?xml version="1.0" encoding="utf-8"?>
<!-- Generator: Adobe Illustrator 16.0.0, SVG Export Plug-In . SVG Version: 6.00 Build 0)  -->
<!DOCTYPE svg PUBLIC "-//W3C//DTD SVG 1.1//EN" "http://www.w3.org/Graphics/SVG/1.1/DTD/svg11.dtd">
<svg version="1.1" id="Calque_1" xmlns="http://www.w3.org/2000/svg" xmlns:xlink="http://www.w3.org/1999/xlink" x="0px" y="0px"
	 width="30px" height="30px" viewBox="0 25 30 30" enable-background="new 0 25 30 30" xml:space="preserve">
<path d="M25.385,35.36h-1.599v-5.208c0-0.97-0.788-1.758-1.758-1.758h-3.285l-0.003-0.342c0-0.983-0.801-1.784-1.783-1.784h-3.922
	c-0.982,0-1.782,0.8-1.782,1.784v0.342H7.972c-0.971,0-1.759,0.788-1.759,1.758v5.208H4.614c-0.97,0-1.758,0.789-1.758,1.759v8.088
	c0,0.969,0.788,1.758,1.758,1.758h1.6v0.533c0,0.172,0.032,0.336,0.081,0.496H5.152c-0.348,0-0.629,0.283-0.629,0.631V53.1
	c0,0.348,0.281,0.631,0.629,0.631h19.695c0.349,0,0.63-0.283,0.63-0.631v-4.477c0-0.348-0.281-0.629-0.63-0.629h-1.142
	c0.047-0.16,0.08-0.324,0.08-0.5v-0.531h1.599c0.97,0,1.759-0.789,1.759-1.758v-8.086C27.143,36.149,26.354,35.36,25.385,35.36z
	 M6.214,45.703h-1.6c-0.274,0-0.497-0.223-0.497-0.498v-4.697l2.096,0.705L6.214,45.703L6.214,45.703z M6.214,39.883l-2.097-0.704
	v-2.06c0-0.274,0.223-0.498,0.498-0.498h1.6L6.214,39.883L6.214,39.883z M20.603,29.654h1.426c0.274,0,0.498,0.224,0.498,0.499
	v3.705c-0.111,0.44-1.173,1.993-1.922,2.843v-7.046H20.603z M18.746,29.654h0.596v7.567h-0.596V29.654z M18.746,38.482h0.596v1.083
	h-0.596V38.482z M12.514,28.053c0-0.288,0.234-0.523,0.521-0.523h3.922c0.287,0,0.523,0.235,0.523,0.527l0.002,0.338h-4.969V28.053z
	 M12.514,29.654h4.973v7.567h-4.973V29.654z M10.657,29.654h0.596v7.567h-0.596V29.654z M10.657,38.482h0.596v1.083h-0.596V38.482z
	 M7.475,30.153c0-0.274,0.223-0.499,0.497-0.499h1.426v6.894c-0.773-0.856-1.793-2.235-1.923-2.697V30.153L7.475,30.153z
	 M7.475,36.177C8.088,37,8.814,37.806,9.397,38.21v1.985c0,0.348,0.281,0.631,0.629,0.631h1.856c0.349,0,0.631-0.283,0.631-0.631
	v-1.713h4.973v1.713c0,0.348,0.283,0.631,0.631,0.631h1.855c0.348,0,0.63-0.283,0.63-0.631v-1.868
	c0.58-0.335,1.308-1.179,1.923-2.052v11.219c0,0.275-0.223,0.5-0.497,0.5H7.972c-0.274,0-0.497-0.225-0.497-0.5V36.177z
	 M9.397,52.469H5.783v-3.215h3.614V52.469z M11.253,52.469h-0.596v-3.215h0.596V52.469z M17.486,52.469h-4.973v-3.215h4.973V52.469z
	 M19.342,52.469h-0.596v-3.215h0.596V52.469z M24.217,49.254v3.215h-3.614v-3.215H24.217z M25.882,45.207
	c0,0.273-0.223,0.498-0.497,0.498h-1.599v-4.492l2.096-0.705V45.207L25.882,45.207z M25.882,39.179l-2.096,0.704v-3.262h1.599
	c0.274,0,0.498,0.223,0.498,0.498L25.882,39.179L25.882,39.179z M10.026,46.678h9.946c0.348,0,0.63-0.283,0.63-0.629v-3.766
	c0-0.348-0.282-0.629-0.63-0.629h-9.946c-0.348,0-0.629,0.281-0.629,0.629v3.766C9.397,46.395,9.679,46.678,10.026,46.678z
	 M10.657,42.916h3.853v0.75c0,0.35,0.282,0.631,0.631,0.631c0.348,0,0.63-0.281,0.63-0.631v-0.75h3.571v2.502h-8.685V42.916z"/>
</svg>
