<?xml version="1.0" encoding="utf-8"?>
<!-- Generator: Adobe Illustrator 16.0.0, SVG Export Plug-In . SVG Version: 6.00 Build 0)  -->
<!DOCTYPE svg PUBLIC "-//W3C//DTD SVG 1.1//EN" "http://www.w3.org/Graphics/SVG/1.1/DTD/svg11.dtd">
<svg version="1.1" id="Calque_1" xmlns="http://www.w3.org/2000/svg" xmlns:xlink="http://www.w3.org/1999/xlink" x="0px" y="0px"
	 width="55px" height="42px" viewBox="0 19 55 42" enable-background="new 0 19 55 42" xml:space="preserve">
<path d="M17.291,57.627l1.258-0.515c2.22-0.953,3.552-3.124,3.555-5.4c0-0.009,0.001-0.02,0.001-0.029V31.208h20.838v10.465
	c-0.869-0.496-1.868-0.772-2.914-0.772c-0.798,0-1.577,0.16-2.316,0.478l-1.257,0.515c-1.442,0.618-2.557,1.763-3.138,3.22
	c-0.582,1.458-0.561,3.056,0.058,4.498c0.929,2.159,3.207,3.556,5.401,3.556c0.799,0,1.58-0.161,2.317-0.479l1.257-0.513
	c1.442-0.619,2.557-1.764,3.138-3.222c0.308-0.772,0.444-1.585,0.415-2.393c0.002-0.024,0.003-0.05,0.003-0.074V31.25v-3.001v-4.911
	c0-0.497-0.249-0.962-0.663-1.236c-0.415-0.275-1.397-0.195-1.397-0.195h-23.79c0,0-0.034,0.015-0.05,0.022
	c-0.025,0.012-0.05,0.023-0.073,0.036c-0.017,0.009-0.032,0.018-0.048,0.027c-0.023,0.013-0.045,0.026-0.067,0.041
	c-0.014,0.008-0.027,0.017-0.042,0.027c-0.026,0.019-0.053,0.039-0.079,0.059c-0.007,0.005-0.015,0.011-0.022,0.017
	c-0.033,0.027-0.064,0.056-0.094,0.085c-0.008,0.008-0.015,0.016-0.022,0.024c-0.023,0.023-0.044,0.047-0.065,0.071
	c-0.009,0.011-0.018,0.021-0.027,0.032c-0.02,0.025-0.04,0.051-0.058,0.078c-0.006,0.009-0.013,0.018-0.02,0.027
	c-0.022,0.034-0.044,0.069-0.063,0.104c-0.008,0.013-0.014,0.027-0.021,0.041c-0.013,0.024-0.025,0.049-0.036,0.073
	c-0.007,0.016-0.015,0.033-0.021,0.049c-0.011,0.027-0.021,0.054-0.03,0.081c-0.005,0.013-0.009,0.026-0.014,0.041
	c-0.012,0.039-0.022,0.079-0.031,0.119c-0.003,0.015-0.005,0.029-0.007,0.044c-0.006,0.03-0.011,0.061-0.015,0.092
	c-0.001,0.014-0.003,0.028-0.004,0.042c-0.004,0.044-0.007,0.089-0.007,0.134v9.18v14.156c-0.87-0.496-1.869-0.773-2.914-0.773
	c-0.799,0-1.579,0.162-2.318,0.478l-1.257,0.515c-1.442,0.619-2.557,1.764-3.139,3.222c-0.581,1.458-0.56,3.055,0.06,4.497
	c0.929,2.16,2.871,3.556,5.4,3.556C16.146,58.104,17.291,57.627,17.291,57.627z M22.104,27.986v-3.675h20.838v1.654v2.021H22.104z"
	/>
</svg>
