<?xml version="1.0" encoding="utf-8"?>
<!-- Generator: Adobe Illustrator 16.0.0, SVG Export Plug-In . SVG Version: 6.00 Build 0)  -->
<!DOCTYPE svg PUBLIC "-//W3C//DTD SVG 1.1//EN" "http://www.w3.org/Graphics/SVG/1.1/DTD/svg11.dtd">
<svg version="1.1" id="Calque_1" xmlns="http://www.w3.org/2000/svg" xmlns:xlink="http://www.w3.org/1999/xlink" x="0px" y="0px"
	 width="30px" height="30px" viewBox="0 25 30 30" enable-background="new 0 25 30 30" xml:space="preserve">
<g>
	<path d="M13.848,47.85c-0.507-0.207-0.898-0.809-0.557-1.643l4.284-10.504c0.09-0.219,0.34-0.324,0.559-0.235
		c0.218,0.089,0.323,0.339,0.233,0.559l-4.285,10.505c-0.063,0.156-0.137,0.434,0.089,0.525c0.228,0.094,0.369-0.156,0.433-0.314
		l4.285-10.503c0.089-0.219,0.34-0.324,0.558-0.235c0.22,0.089,0.325,0.339,0.235,0.559l-4.284,10.504
		C15.056,47.9,14.356,48.057,13.848,47.85z"/>
	<path d="M18.043,36.166c-0.891-0.435-1.724-0.982-2.477-1.626c-0.375-0.321-0.594-0.76-0.601-1.203
		c-0.005-0.349,0.125-0.66,0.364-0.877l0.055-0.068c0.415-0.375,1.03-0.443,1.575-0.178c0.124,0.06,0.24,0.136,0.345,0.226
		c1.118,0.958,2.706,1.419,4.146,1.71c0.137,0.028,0.268,0.073,0.391,0.133c0.542,0.265,0.871,0.792,0.83,1.34l-0.037,0.407
		c-0.023,0.314-0.189,0.607-0.467,0.818c-0.353,0.27-0.832,0.367-1.317,0.268C19.878,36.919,18.935,36.6,18.043,36.166z
		 M16.584,32.984c-0.228-0.111-0.47-0.097-0.618,0.036l-0.055,0.068c-0.076,0.07-0.09,0.167-0.089,0.237
		c0.002,0.194,0.116,0.405,0.3,0.563c1.395,1.195,3.097,2.024,4.897,2.388c0.241,0.049,0.475,0.007,0.63-0.109
		c0.056-0.042,0.125-0.113,0.132-0.208l0.037-0.407c0.013-0.189-0.125-0.389-0.353-0.5c-0.059-0.029-0.122-0.052-0.188-0.064
		C19.7,34.67,17.975,34.14,16.75,33.09C16.699,33.047,16.644,33.013,16.584,32.984z"/>
	<path d="M11.612,53.268c-3.518-1.434-5.212-5.465-3.776-8.984c1.3-3.188,4.788-4.936,8.114-4.068
		c0.229,0.062,0.365,0.295,0.306,0.524c-0.059,0.229-0.293,0.366-0.522,0.306c-2.913-0.76-5.967,0.772-7.106,3.562
		c-1.257,3.082,0.228,6.611,3.309,7.867c3.081,1.258,6.609-0.227,7.866-3.309c1.125-2.759,0.1-5.881-2.439-7.429
		c-0.204-0.123-0.267-0.386-0.143-0.589c0.122-0.203,0.386-0.266,0.589-0.142c2.898,1.767,4.072,5.333,2.787,8.481
		C19.162,53.008,15.13,54.703,11.612,53.268z"/>
	<path d="M12.197,51.836c-2.72-1.109-4.03-4.227-2.92-6.945c0.978-2.396,3.524-3.742,6.05-3.197c0.23,0.051,0.379,0.277,0.328,0.51
		c-0.049,0.23-0.277,0.377-0.509,0.328c-2.121-0.456-4.255,0.67-5.076,2.684c-0.932,2.283,0.169,4.896,2.451,5.826
		c2.281,0.93,4.896-0.168,5.827-2.449c0.821-2.014,0.084-4.311-1.75-5.469c-0.201-0.127-0.262-0.391-0.134-0.591
		c0.125-0.2,0.389-0.26,0.59-0.134c2.188,1.378,3.066,4.119,2.088,6.516C18.032,51.635,14.917,52.945,12.197,51.836z"/>
	<path d="M15.976,49.273c-0.062-0.025-0.117-0.062-0.163-0.119l-1.272-1.488c-0.153-0.18-0.132-0.449,0.047-0.604
		c0.179-0.152,0.45-0.133,0.604,0.049l1.272,1.486c0.152,0.178,0.132,0.451-0.048,0.604C16.291,49.309,16.12,49.332,15.976,49.273z"
		/>
	<path d="M13.386,46.3c-0.07-0.029-0.132-0.073-0.18-0.138l-1.134-1.5c-0.144-0.188-0.105-0.456,0.083-0.6
		c0.189-0.143,0.458-0.105,0.6,0.082l1.134,1.5c0.144,0.189,0.105,0.457-0.083,0.601C13.681,46.34,13.521,46.354,13.386,46.3z"/>
	<path d="M15.135,49.49c-0.145-0.059-0.251-0.195-0.265-0.359c-0.021-0.238,0.153-0.445,0.389-0.465l1.735-0.152
		c0.235-0.018,0.444,0.154,0.464,0.391c0.019,0.236-0.154,0.443-0.391,0.465l-1.734,0.148C15.264,49.525,15.194,49.514,15.135,49.49
		z"/>
	<path d="M11.45,44.719c-0.145-0.06-0.25-0.195-0.266-0.361c-0.021-0.236,0.154-0.442,0.39-0.464l1.735-0.15
		c0.235-0.021,0.442,0.153,0.463,0.39s-0.154,0.443-0.389,0.465l-1.735,0.148C11.58,44.754,11.51,44.744,11.45,44.719z"/>
</g>
<circle cx="11.115" cy="34.604" r="0.996"/>
<circle cx="15.135" cy="28.02" r="0.996"/>
<circle cx="15.442" cy="36.854" r="0.996"/>
</svg>
