<?xml version="1.0" encoding="utf-8"?>
<!-- Generator: Adobe Illustrator 16.0.0, SVG Export Plug-In . SVG Version: 6.00 Build 0)  -->
<!DOCTYPE svg PUBLIC "-//W3C//DTD SVG 1.1//EN" "http://www.w3.org/Graphics/SVG/1.1/DTD/svg11.dtd">
<svg version="1.1" id="Calque_1" xmlns="http://www.w3.org/2000/svg" xmlns:xlink="http://www.w3.org/1999/xlink" x="0px" y="0px"
	 width="55px" height="42px" viewBox="0 0 55 42" enable-background="new 0 0 55 42" xml:space="preserve">
<g>
	<g>
		<path d="M49.1,5.768H5.9c-0.704,0-1.217,0.576-1.217,1.216v28.032c0,0.641,0.513,1.217,1.217,1.217h25.15h10.881H49.1
			c0.705,0,1.217-0.514,1.217-1.152V6.983C50.316,6.279,49.74,5.768,49.1,5.768z"/>
		<path fill="#FFFFFF" d="M45.755,31.125c0.615,0.562,0.615,1.533,0.052,2.098c-0.308,0.307-0.664,0.461-1.072,0.461
			c-0.358,0-0.769-0.154-1.023-0.412L33.021,23.045l-0.972,0.922c-1.278,1.227-2.915,1.789-4.55,1.789
			c-1.637,0-3.324-0.613-4.551-1.789l-0.972-0.922L11.289,33.271c-0.614,0.562-1.534,0.562-2.096-0.049
			c-0.562-0.615-0.562-1.535,0.051-2.1L19.829,21L9.244,10.876C8.63,10.313,8.63,9.341,9.193,8.778
			c0.562-0.612,1.534-0.612,2.096-0.051l13.705,13.142c1.381,1.328,3.631,1.328,5.013,0L43.71,8.728
			c0.614-0.562,1.534-0.562,2.097,0.051c0.563,0.615,0.563,1.535-0.052,2.098L35.223,21L45.755,31.125z"/>
	</g>
</g>
</svg>
