<?xml version="1.0" encoding="utf-8"?>
<!-- Generator: Adobe Illustrator 16.0.0, SVG Export Plug-In . SVG Version: 6.00 Build 0)  -->
<!DOCTYPE svg PUBLIC "-//W3C//DTD SVG 1.1//EN" "http://www.w3.org/Graphics/SVG/1.1/DTD/svg11.dtd">
<svg version="1.1" id="Calque_1" xmlns="http://www.w3.org/2000/svg" xmlns:xlink="http://www.w3.org/1999/xlink" x="0px" y="0px"
	 width="55px" height="42px" viewBox="0 19 55 42" enable-background="new 0 19 55 42" xml:space="preserve">
<g>
	<g>
		<path d="M27.5,19.936"/>
		<path d="M49.1,24.736H5.9c-0.704,0-1.217,0.576-1.217,1.216v28.032c0,0.64,0.513,1.216,1.217,1.216h25.152h10.879H49.1
			c0.705,0,1.217-0.513,1.217-1.152V25.952C50.316,25.248,49.74,24.736,49.1,24.736z M45.755,50.124
			c0.615,0.563,0.615,1.533,0.052,2.099c-0.308,0.307-0.664,0.46-1.073,0.46c-0.358,0-0.768-0.153-1.023-0.411L33.022,42.044
			l-0.972,0.922c-1.279,1.227-2.915,1.79-4.55,1.79c-1.637,0-3.324-0.613-4.551-1.79l-0.972-0.922L11.289,52.271
			c-0.614,0.563-1.534,0.563-2.096-0.049c-0.562-0.614-0.562-1.535,0.051-2.099L19.829,40L9.244,29.875
			c-0.613-0.563-0.613-1.535-0.051-2.097c0.562-0.613,1.534-0.613,2.096-0.051l13.705,13.142c1.381,1.328,3.631,1.328,5.013,0
			L43.71,27.727c0.614-0.562,1.534-0.562,2.097,0.051c0.563,0.614,0.563,1.534-0.052,2.097L35.222,40L45.755,50.124z"/>
	</g>
</g>
</svg>
